# xmcd
#
# Track frame offsets:
#       150
#       92646
#       139760
#       189656
#
# Disc length: 3851 seconds
#
# Revision: 0
# Processed by: cddbd v1.5.1PL0 Copyright (c) Steve Scherf et al.
# Submitted via: WhereIsIt 3.57
#
DISCID=300f0904
DTITLE=Nusrat Fateh Ali Khan - Live at the Royal Albert Hall
DYEAR=1998
DGENRE=Qawwali
TTITLE0=Ik jaam chalak ta
TTITLE1=Kina sona
TTITLE2=Gorakh dandha
TTITLE3=Akhain udeek diyan
EXTD=
EXTT0=
EXTT1=
EXTT2=
EXTT3=
PLAYORDER=
